<svg preserveAspectRatio="none" overflow="visible" style="display: block;" width="20" height="20" viewBox="0 0 20 20" fill="none" xmlns="http://www.w3.org/2000/svg">
<g id="award-03-lined">
<path id="Icon" d="M6.55722 12.8833L5.83333 18.3333L9.657 16.0391C9.78171 15.9643 9.84407 15.9269 9.91063 15.9123C9.96951 15.8993 10.0305 15.8993 10.0894 15.9123C10.1559 15.9269 10.2183 15.9643 10.343 16.0391L14.1667 18.3333L13.4433 12.8809M13.6882 3.54073C13.8169 3.852 14.064 4.09942 14.375 4.22859L15.4658 4.6804C15.7771 4.80934 16.0244 5.05666 16.1533 5.36795C16.2822 5.67924 16.2822 6.02901 16.1533 6.3403L15.7018 7.43029C15.5728 7.74172 15.5727 8.09184 15.7022 8.40312L16.1529 9.49279C16.2168 9.64697 16.2498 9.81223 16.2498 9.97913C16.2498 10.146 16.2169 10.3113 16.1531 10.4655C16.0892 10.6197 15.9956 10.7598 15.8776 10.8778C15.7595 10.9958 15.6194 11.0894 15.4652 11.1532L14.3752 11.6047C14.064 11.7334 13.8166 11.9805 13.6874 12.2915L13.2356 13.3823C13.1067 13.6936 12.8593 13.9409 12.5481 14.0699C12.2368 14.1988 11.887 14.1988 11.5758 14.0699L10.4858 13.6184C10.1745 13.4897 9.82489 13.49 9.5138 13.6191L8.42306 14.0703C8.11195 14.1989 7.76251 14.1988 7.45148 14.07C7.14045 13.9411 6.89328 13.6941 6.76426 13.3831L6.31232 12.292C6.18363 11.9808 5.93659 11.7334 5.62553 11.6042L4.53479 11.1524C4.22365 11.0235 3.97641 10.7763 3.84743 10.4652C3.71844 10.1541 3.71827 9.8045 3.84694 9.49326L4.29841 8.40326C4.42703 8.09196 4.42677 7.74232 4.29768 7.43122L3.84686 6.33966C3.78294 6.18548 3.75003 6.02022 3.75 5.85331C3.74997 5.68641 3.78283 5.52114 3.8467 5.36694C3.91057 5.21274 4.0042 5.07264 4.12223 4.95464C4.24026 4.83664 4.38039 4.74305 4.5346 4.67923L5.62456 4.22774C5.93554 4.09915 6.1828 3.85242 6.31206 3.5417L6.76386 2.45092C6.8928 2.13963 7.14011 1.89231 7.45139 1.76337C7.76267 1.63443 8.11242 1.63443 8.4237 1.76337L9.51365 2.21486C9.82494 2.34349 10.1746 2.34322 10.4857 2.21413L11.5769 1.76407C11.8881 1.6352 12.2378 1.63523 12.549 1.76415C12.8602 1.89306 13.1075 2.14031 13.2364 2.45152L13.6884 3.54262L13.6882 3.54073Z" stroke="#1C1C1E" stroke-width="1.5" stroke-linecap="round" stroke-linejoin="round"/>
</g>
</svg>
